<?xml version="1.0" encoding="UTF-8" standalone="no"?>
<!-- Generator: Adobe Illustrator 25.0.0, SVG Export Plug-In . SVG Version: 6.00 Build 0)  -->

<svg
   version="1.1"
   id="Camada_1"
   x="0px"
   y="0px"
   viewBox="0 0 170.08 85.04"
   style="enable-background:new 0 0 170.08 85.04;"
   xml:space="preserve"
   sodipodi:docname="header.logo.svg"
   inkscape:version="1.3 (0e150ed6c4, 2023-07-21)"
   xmlns:inkscape="http://www.inkscape.org/namespaces/inkscape"
   xmlns:sodipodi="http://sodipodi.sourceforge.net/DTD/sodipodi-0.dtd"
   xmlns="http://www.w3.org/2000/svg"
   xmlns:svg="http://www.w3.org/2000/svg"><defs
   id="defs21" /><sodipodi:namedview
   id="namedview21"
   pagecolor="#ffffff"
   bordercolor="#000000"
   borderopacity="0.25"
   inkscape:showpageshadow="2"
   inkscape:pageopacity="0.0"
   inkscape:pagecheckerboard="0"
   inkscape:deskcolor="#d1d1d1"
   inkscape:zoom="4.8767418"
   inkscape:cx="-1.2303296"
   inkscape:cy="58.133076"
   inkscape:window-width="2818"
   inkscape:window-height="1237"
   inkscape:window-x="82"
   inkscape:window-y="41"
   inkscape:window-maximized="0"
   inkscape:current-layer="Camada_1" />&#10;<style
   type="text/css"
   id="style1">&#10;	.st0{fill:#706F6F;}&#10;	.st1{font-family:'Rubik-Regular';}&#10;	.st2{font-size:4.6347px;}&#10;	.st3{fill:#15B5CB;}&#10;	.st4{fill:#5BBFEC;}&#10;	.st5{fill:#109784;}&#10;	.st6{fill:#0D779A;}&#10;	.st7{fill:#00FFAA;}&#10;	.st8{fill:#13B695;}&#10;	.st9{fill:#660093;}&#10;	.st10{fill:#3300C6;}&#10;	.st11{fill:#0049FF;}&#10;	.st12{fill:#662DAF;}&#10;	.st13{fill:#0099DD;}&#10;	.st14{fill:#3E009A;}&#10;</style>&#10;<g
   id="g21"
   style="fill:#ffffff">&#10;	<g
   id="g9"
   style="fill:#ffffff">&#10;		<path
   class="st0"
   d="M76,34.37c-1.02-0.54-2.18-0.81-3.47-0.81c-1.19,0-2.26,0.26-3.23,0.78c-0.68,0.37-1.26,0.83-1.75,1.39V34.8    v-6.4c0-0.33-0.1-0.59-0.29-0.78c-0.19-0.19-0.44-0.29-0.75-0.29c-0.33,0-0.59,0.1-0.78,0.29c-0.19,0.19-0.29,0.45-0.29,0.78v6.4    v6.73v6.13c0,0.31,0.1,0.56,0.29,0.75c0.19,0.19,0.45,0.29,0.78,0.29c0.31,0,0.56-0.1,0.75-0.29c0.19-0.19,0.29-0.44,0.29-0.75    v-6.13v-1.97c0-0.77,0.21-1.45,0.63-2.05c0.42-0.6,0.99-1.08,1.71-1.42c0.72-0.35,1.53-0.52,2.42-0.52c0.93,0,1.76,0.18,2.5,0.55    c0.74,0.36,1.32,0.91,1.75,1.64c0.43,0.73,0.64,1.66,0.64,2.79v7.11c0,0.29,0.1,0.54,0.3,0.74c0.2,0.2,0.46,0.3,0.77,0.3    c0.29,0,0.54-0.1,0.74-0.3c0.2-0.2,0.3-0.45,0.3-0.74v-7.11c0-1.49-0.3-2.76-0.89-3.8C77.83,35.7,77.03,34.91,76,34.37z"
   id="path1"
   style="fill:#ffffff" />&#10;		<path
   class="st0"
   d="M93.27,34.59c-1.14-0.67-2.43-1-3.87-1c-1.44,0-2.73,0.33-3.88,1c-1.15,0.67-2.06,1.57-2.72,2.72    c-0.67,1.15-1,2.45-1,3.91c0,1.44,0.32,2.73,0.97,3.88c0.65,1.15,1.53,2.06,2.64,2.72c1.11,0.67,2.37,1,3.77,1    c1.33,0,2.52-0.31,3.57-0.92c0.85-0.5,1.56-1.15,2.12-1.94v1.68c0,0.31,0.1,0.56,0.3,0.75c0.2,0.19,0.46,0.29,0.77,0.29    c0.31,0,0.56-0.1,0.77-0.29c0.2-0.19,0.3-0.44,0.3-0.75v-6.43c-0.02-1.46-0.36-2.76-1.03-3.91    C95.32,36.16,94.41,35.26,93.27,34.59z M92.24,46.17c-0.83,0.49-1.77,0.74-2.83,0.74c-1.04,0-1.98-0.25-2.82-0.74    c-0.84-0.49-1.5-1.17-2-2.04c-0.49-0.87-0.74-1.84-0.74-2.91c0-1.09,0.25-2.07,0.74-2.93c0.49-0.86,1.16-1.54,2-2.04    c0.84-0.5,1.78-0.75,2.82-0.75c1.06,0,2,0.25,2.83,0.75c0.83,0.5,1.49,1.18,1.97,2.04c0.48,0.86,0.72,1.83,0.72,2.93    c0,1.08-0.24,2.05-0.72,2.91C93.72,45,93.07,45.68,92.24,46.17z"
   id="path2"
   style="fill:#ffffff" />&#10;		<path
   class="st0"
   d="M111.34,34.59c-1.11-0.67-2.37-1-3.77-1c-1.22,0-2.33,0.26-3.32,0.78c-0.99,0.52-1.79,1.21-2.39,2.06V28.4    c0-0.33-0.1-0.59-0.29-0.78c-0.19-0.19-0.44-0.29-0.75-0.29c-0.33,0-0.59,0.1-0.78,0.29c-0.19,0.19-0.29,0.45-0.29,0.78V41.3    c0.02,1.42,0.36,2.7,1.03,3.84c0.67,1.14,1.57,2.04,2.71,2.69c1.14,0.66,2.42,0.98,3.84,0.98c1.46,0,2.76-0.33,3.91-1    c1.15-0.67,2.06-1.57,2.72-2.72c0.67-1.15,1-2.45,1-3.91c0-1.44-0.32-2.73-0.97-3.88C113.33,36.16,112.45,35.26,111.34,34.59z     M112.15,44.12c-0.48,0.86-1.14,1.54-1.98,2.04c-0.84,0.5-1.79,0.75-2.84,0.75c-1.04,0-1.98-0.25-2.82-0.75    c-0.84-0.5-1.5-1.18-1.97-2.04c-0.47-0.86-0.71-1.83-0.71-2.93c0-1.08,0.24-2.05,0.71-2.91c0.47-0.87,1.13-1.55,1.97-2.04    c0.84-0.49,1.78-0.74,2.82-0.74c1.06,0,2.01,0.25,2.84,0.74c0.84,0.49,1.5,1.17,1.98,2.04c0.48,0.87,0.72,1.84,0.72,2.91    C112.87,42.29,112.63,43.26,112.15,44.12z"
   id="path3"
   style="fill:#ffffff" />&#10;		<path
   class="st0"
   d="M119.21,33.73c-0.33,0-0.59,0.1-0.78,0.29c-0.19,0.19-0.29,0.45-0.29,0.78v12.83c0,0.33,0.1,0.59,0.29,0.78    c0.19,0.19,0.45,0.29,0.78,0.29c0.31,0,0.56-0.1,0.75-0.29c0.19-0.19,0.29-0.45,0.29-0.78V34.8c0-0.33-0.1-0.59-0.29-0.78    C119.77,33.83,119.52,33.73,119.21,33.73z"
   id="path4"
   style="fill:#ffffff" />&#10;		<path
   class="st0"
   d="M119.21,27.9c-0.4,0-0.75,0.13-1.05,0.4c-0.3,0.26-0.45,0.62-0.45,1.08c0,0.42,0.15,0.78,0.44,1.07    c0.29,0.29,0.64,0.44,1.04,0.44c0.42,0,0.77-0.15,1.07-0.44c0.29-0.29,0.44-0.65,0.44-1.07c0-0.46-0.15-0.82-0.45-1.08    C119.94,28.04,119.6,27.9,119.21,27.9z"
   id="path5"
   style="fill:#ffffff" />&#10;		<path
   class="st0"
   d="M128.16,46.61h-0.68c-0.49,0-0.9-0.25-1.22-0.74c-0.32-0.49-0.48-1.13-0.48-1.91V28.37    c0-0.31-0.1-0.56-0.29-0.75c-0.19-0.19-0.44-0.29-0.75-0.29c-0.31,0-0.56,0.1-0.75,0.29c-0.19,0.19-0.29,0.44-0.29,0.75v15.59    c0,0.93,0.16,1.75,0.48,2.46c0.32,0.71,0.77,1.27,1.34,1.67c0.57,0.4,1.23,0.6,1.96,0.6h0.36c0.36,0,0.66-0.1,0.89-0.29    c0.23-0.19,0.34-0.44,0.34-0.75c0-0.31-0.08-0.56-0.25-0.75C128.65,46.71,128.43,46.61,128.16,46.61z"
   id="path6"
   style="fill:#ffffff" />&#10;		<path
   class="st0"
   d="M132.1,33.73c-0.33,0-0.59,0.1-0.78,0.29s-0.29,0.45-0.29,0.78v12.83c0,0.33,0.1,0.59,0.29,0.78    c0.19,0.19,0.45,0.29,0.78,0.29c0.31,0,0.56-0.1,0.75-0.29c0.19-0.19,0.29-0.45,0.29-0.78V34.8c0-0.33-0.1-0.59-0.29-0.78    C132.66,33.83,132.41,33.73,132.1,33.73z"
   id="path7"
   style="fill:#ffffff" />&#10;		<path
   class="st0"
   d="M132.1,27.9c-0.4,0-0.75,0.13-1.05,0.4c-0.3,0.26-0.45,0.62-0.45,1.08c0,0.42,0.15,0.78,0.44,1.07    c0.29,0.29,0.64,0.44,1.04,0.44c0.42,0,0.77-0.15,1.07-0.44c0.29-0.29,0.44-0.65,0.44-1.07c0-0.46-0.15-0.82-0.45-1.08    C132.82,28.04,132.48,27.9,132.1,27.9z"
   id="path8"
   style="fill:#ffffff" />&#10;		<path
   class="st0"
   d="M147.72,42.63c-0.34-0.57-0.9-1.08-1.7-1.5c-0.79-0.43-1.87-0.75-3.24-0.97c-1-0.16-1.78-0.36-2.34-0.6    c-0.56-0.24-0.95-0.51-1.18-0.82c-0.23-0.31-0.34-0.67-0.34-1.09c0-0.62,0.3-1.14,0.9-1.55c0.6-0.41,1.4-0.62,2.41-0.62    c0.78,0,1.48,0.12,2.08,0.37c0.6,0.25,1.13,0.63,1.59,1.16c0.2,0.22,0.44,0.35,0.72,0.4c0.28,0.05,0.53,0,0.75-0.12    c0.26-0.16,0.4-0.37,0.44-0.63c0.04-0.26-0.04-0.5-0.22-0.74c-0.55-0.71-1.26-1.28-2.15-1.7c-0.88-0.42-1.94-0.63-3.16-0.63    c-0.98,0-1.89,0.16-2.71,0.47c-0.82,0.31-1.48,0.78-1.97,1.39c-0.49,0.62-0.74,1.39-0.74,2.32c0,1,0.43,1.87,1.29,2.6    c0.86,0.73,2.21,1.24,4.05,1.53c1.42,0.24,2.44,0.57,3.06,1c0.62,0.43,0.93,0.97,0.93,1.63c-0.02,0.66-0.33,1.22-0.93,1.68    c-0.6,0.47-1.58,0.7-2.93,0.7c-0.87,0-1.67-0.14-2.39-0.41c-0.72-0.27-1.3-0.67-1.74-1.18c-0.18-0.2-0.41-0.32-0.68-0.36    c-0.27-0.04-0.54,0.04-0.79,0.22c-0.24,0.2-0.37,0.44-0.41,0.71c-0.04,0.27,0.05,0.52,0.25,0.74c0.66,0.73,1.51,1.28,2.57,1.64    c1.06,0.36,2.12,0.55,3.2,0.55c1.15,0,2.16-0.18,3.05-0.55c0.88-0.36,1.58-0.87,2.08-1.52c0.5-0.65,0.75-1.4,0.75-2.26    C148.23,43.83,148.06,43.21,147.72,42.63z"
   id="path9"
   style="fill:#ffffff" />&#10;	</g>&#10;	<text
   transform="matrix(1 0 0 1 65.4494 57.2485)"
   class="st0 st1 st2"
   id="text9"
   style="fill:#ffffff">SISTEMAS INTELIGENTES</text>&#10;	<g
   id="g20"
   style="fill:#ffffff">&#10;		<path
   class="st3"
   d="M33.85,36.35l-12-6.17l12-6.17V36.35z"
   id="path10"
   style="fill:#ffffff" />&#10;		<path
   class="st4"
   d="M33.85,36.35l12,6.17l-12,6.17V36.35z"
   id="path11"
   style="fill:#ffffff" />&#10;		<path
   class="st5"
   d="M33.85,48.69l-12-6.17l12-6.17V48.69z"
   id="path12"
   style="fill:#ffffff" />&#10;		<path
   class="st6"
   d="M21.85,30.18l12,6.17l-12,6.17V30.18z"
   id="path13"
   style="fill:#ffffff" />&#10;		<path
   class="st7"
   d="M33.85,61.04l-12-6.17l12-6.17V61.04z"
   id="path14"
   style="fill:#ffffff" />&#10;		<path
   class="st8"
   d="M21.85,42.52l12,6.17l-12,6.17V42.52z"
   id="path15"
   style="fill:#ffffff" />&#10;		<path
   class="st9"
   d="M45.85,48.69l12,6.17l-12,6.17V48.69z"
   id="path16"
   style="fill:#ffffff" />&#10;		<path
   class="st10"
   d="M45.85,36.35l12,6.17l-12,6.17V36.35z"
   id="path17"
   style="fill:#ffffff" />&#10;		<path
   class="st11"
   d="M57.84,42.52l-12-6.17l12-6.17V42.52z"
   id="path18"
   style="fill:#ffffff" />&#10;		<path
   class="st12"
   d="M57.84,54.86l-12-6.17l12-6.17V54.86z"
   id="path19"
   style="fill:#ffffff" />&#10;		<path
   class="st13"
   d="M45.85,24l12,6.17l-12,6.17V24z"
   id="path20"
   style="fill:#ffffff" />&#10;	</g>&#10;</g>&#10;</svg>
