<svg xmlns="http://www.w3.org/2000/svg" viewBox="0 0 1197 310"><path d="M24.5 121h41l3.3 61.5L97.1 121h41l-20.5 101H92l15.7-77-35.3 77H49.2l-4-77-15.7 77H4l20.5-101zM158.5 121h27.9l-3.9 19h-27.9l3.9-19zm-5.7 28h28L166 222h-28l14.8-73zM198.8 149h26.1l-2.4 11.9c4.9-4.9 9.5-8.3 13.9-10.4 4.4-2.1 9.5-3.1 15.2-3.1 7.7 0 13.3 2.3 16.8 6.9 3.4 4.6 4.2 11.7 2.2 21.3l-9.4 46.4h-28.1l8.2-40.1c.9-4.6.7-7.8-.6-9.7-1.3-1.9-3.5-2.9-6.6-2.9-3.4 0-6.4 1.3-9 3.8-2.6 2.6-4.6 7.2-6 13.8L212 222h-28l14.8-73zM316.6 172.5l-26.3-2.8c2-4.7 4.2-8.4 6.6-11.1 2.5-2.7 5.7-5 9.7-7 2.9-1.4 6.6-2.5 11.3-3.3 4.7-.8 9.6-1.2 14.9-1.2 8.4 0 15.1.5 20 1.4 4.9.9 8.8 2.9 11.6 5.9 2 2.1 3.3 5 3.9 8.8.6 3.8.6 7.4-.1 10.9l-6.6 32.3c-.7 3.4-1 6.2-1 8.1 0 2 .5 4.4 1.3 7.5h-26.3c-.7-1.9-1.1-3.3-1.2-4.3-.1-1-.1-2.5 0-4.7-4.4 3.5-8.6 6.1-12.5 7.6-5.4 2-11.4 3-17.9 3-8.7 0-15-2-18.7-6.1-3.7-4-5-9-3.8-15 1.1-5.6 3.7-10.1 7.7-13.7 4-3.6 10.6-6.3 19.7-8 11-2.1 18.1-3.6 21.4-4.4 3.3-.9 6.8-2 10.6-3.3.7-3.4.5-5.9-.7-7.2-1.1-1.4-3.5-2.1-7.1-2.1-4.6 0-8.2.7-10.8 2.2-2.1 1.1-3.9 3.3-5.7 6.5zm21.4 14.8c-4.1 1.4-8.4 2.6-12.8 3.7-6 1.5-9.9 3-11.7 4.5-1.9 1.5-3 3.2-3.4 5.2-.4 2.2 0 4 1.2 5.4 1.3 1.4 3.4 2.1 6.4 2.1 3.1 0 6.2-.8 9.2-2.3 3-1.5 5.3-3.4 6.9-5.6 1.6-2.2 2.7-5 3.4-8.5l.8-4.5zM375 201.7l28.4-2.6c.5 3.3 1.6 5.7 3.4 7.1 1.8 1.4 4.4 2.1 7.8 2.1 3.8 0 6.9-.8 9.2-2.4 1.9-1.2 3-2.7 3.3-4.5.4-2-.3-3.6-2.2-4.7-1.4-.8-5.2-1.7-11.5-2.9-9.4-1.7-15.9-3.3-19.4-4.7-3.5-1.4-6.2-3.9-8.1-7.3-1.9-3.4-2.4-7.4-1.5-11.8 1-4.8 3.2-9 6.7-12.5s7.9-6.1 13.2-7.8c5.3-1.7 12-2.6 20.3-2.6 8.7 0 15 .7 18.9 2 3.9 1.3 6.9 3.4 9.2 6.2 2.2 2.8 3.8 6.6 4.6 11.4l-27.2 2.6c-.2-2.3-1-4.1-2.4-5.2-1.9-1.5-4.4-2.2-7.6-2.2-3.2 0-5.6.6-7.3 1.7-1.7 1.1-2.7 2.5-3 4.1-.4 1.8.3 3.1 1.9 4.1 1.7.9 5.5 1.7 11.5 2.5 9.1 1.1 15.8 2.5 19.9 4.4 4.2 1.9 7.1 4.6 8.8 8.1 1.7 3.5 2.1 7.3 1.3 11.5-.9 4.2-3 8.3-6.3 12.3-3.4 4-8 7.2-14 9.5-6 2.4-13.7 3.5-23.2 3.5-13.4 0-22.5-1.9-27.4-5.7-4.6-3.8-7.1-9.2-7.3-16.2zM467.5 174h41.3l-4.5 22H463l4.5-22zM532.5 121h58.4c9.7 0 16.7 2.4 21 7.2 4.2 4.8 5.6 10.8 4.2 17.9-1.2 6-4.1 11.1-8.7 15.4-3.1 2.8-7.1 5.1-12.3 6.8 6.9 1.7 11.6 4.7 14.2 9 2.6 4.2 3.2 9.6 1.9 16a33.7 33.7 0 0 1-6.5 14.1c-3.3 4.2-7.3 7.5-12 9.9-2.9 1.5-7.1 2.6-12.5 3.3-7.2.9-12 1.4-14.3 1.4H512l20.5-101zm23.6 39h13.5c4.8 0 8.4-.8 10.6-2.5 2.2-1.7 3.7-4.1 4.3-7.2.6-2.9.1-5.2-1.4-6.8-1.6-1.6-4.7-2.5-9.4-2.5H560l-3.9 19zm-7.8 40h15.6c5.3 0 9.1-.9 11.7-2.8 2.5-1.9 4.1-4.4 4.8-7.5.6-2.9 0-5.3-1.8-7-1.8-1.8-5.3-2.7-10.7-2.7h-15.5l-4.1 20zM635.8 149H662l-2.4 12c3.6-5.2 6.9-8.7 10-10.7 3.1-1.9 6.6-2.9 10.5-2.9 4.1 0 8.4 1.3 12.8 3.8l-12.7 19.9c-3-1.4-5.5-2.1-7.4-2.1-3.7 0-6.8 1.5-9.4 4.5-3.8 4.3-6.8 12.2-9.2 23.9l-5 24.5H621l14.8-72.9zM721.6 172.5l-26.3-2.8c2-4.7 4.2-8.4 6.6-11.1 2.5-2.7 5.7-5 9.7-7 2.9-1.4 6.6-2.5 11.3-3.3 4.7-.8 9.6-1.2 14.9-1.2 8.4 0 15.1.5 20 1.4 4.9.9 8.8 2.9 11.6 5.9 2 2.1 3.3 5 3.9 8.8.6 3.8.6 7.4-.1 10.9l-6.6 32.3c-.7 3.4-1 6.2-1 8.1 0 2 .5 4.4 1.3 7.5h-26.3c-.7-1.9-1.1-3.3-1.2-4.3-.1-1-.1-2.5 0-4.7-4.4 3.5-8.6 6.1-12.5 7.6-5.4 2-11.4 3-17.9 3-8.7 0-15-2-18.7-6.1-3.7-4-5-9-3.8-15 1.1-5.6 3.7-10.1 7.7-13.7 4-3.6 10.6-6.3 19.7-8 11-2.1 18.1-3.6 21.4-4.4 3.3-.9 6.8-2 10.6-3.3.7-3.4.5-5.9-.7-7.2-1.1-1.4-3.5-2.1-7.1-2.1-4.6 0-8.2.7-10.8 2.2-2.1 1.1-3.9 3.3-5.7 6.5zm21.4 14.8c-4.1 1.4-8.4 2.6-12.8 3.7-6 1.5-9.9 3-11.7 4.5-1.9 1.5-3 3.2-3.4 5.2-.4 2.2 0 4 1.2 5.4 1.3 1.4 3.4 2.1 6.4 2.1 3.1 0 6.2-.8 9.2-2.3 3-1.5 5.3-3.4 6.9-5.6 1.6-2.2 2.7-5 3.4-8.5l.8-4.5zM781 201.7l28.4-2.6c.5 3.3 1.6 5.7 3.4 7.1 1.8 1.4 4.4 2.1 7.8 2.1 3.8 0 6.9-.8 9.3-2.4 1.9-1.2 3-2.7 3.3-4.5.4-2-.3-3.6-2.2-4.7-1.4-.8-5.2-1.7-11.5-2.9-9.4-1.7-15.9-3.3-19.4-4.7-3.5-1.4-6.2-3.9-8.1-7.3-1.9-3.4-2.4-7.4-1.5-11.8 1-4.8 3.2-9 6.7-12.5s7.9-6.1 13.2-7.8c5.3-1.7 12-2.6 20.3-2.6 8.7 0 15 .7 18.9 2 3.9 1.3 6.9 3.4 9.2 6.2 2.2 2.8 3.8 6.6 4.6 11.4l-27.2 2.6c-.2-2.3-1-4.1-2.4-5.2-1.9-1.5-4.4-2.2-7.6-2.2-3.2 0-5.6.6-7.3 1.7-1.7 1.1-2.7 2.5-3 4.1-.4 1.8.3 3.1 1.9 4.1 1.7.9 5.5 1.7 11.5 2.5 9.1 1.1 15.8 2.5 19.9 4.4 4.2 1.9 7.1 4.6 8.8 8.1 1.7 3.5 2.1 7.3 1.3 11.5-.9 4.2-3 8.3-6.3 12.3-3.4 4-8 7.2-14 9.5-6 2.4-13.7 3.5-23.2 3.5-13.4 0-22.5-1.9-27.4-5.7-4.7-3.8-7.2-9.2-7.4-16.2zM889.5 121h27.9l-3.9 19h-27.9l3.9-19zm-5.7 28h28L897 222h-28l14.8-73zM936.5 121h28.1l-20.5 101H916l20.5-101zM328.8 61.2c-5.6-3.1-26-2.3-26-2.3-18.3 0-22 10.1-22 10.1l18.5.2s1.1-4.1 9.2-3.8c8.9.4 3.4 6.2 3.4 6.2-1.2.9-9.1.8-19.4 1.7-11.1.9-17.4 6.1-17.4 11s2.5 9 16.6 9c11.9 0 18.9-5.1 18.9-5.1-.5 2.5 0 3.7 0 3.7h20.7c-4.1-3.5-.7-10.3.8-16.6 1.4-6.5 2.3-11.1-3.3-14.1zm-28.7 25.9s-5.3-.2-5.3-3.9c0-4.2 16.3-5.4 16.3-5.4s1.4 9.3-11 9.3zM468.8 61.2c-5.6-3.1-26-2.3-26-2.3-18.3 0-22 10.1-22 10.1l18.5.2s1.1-4.1 9.2-3.8c8.9.4 3.4 6.2 3.4 6.2-1.2.9-9.1.8-19.4 1.7-11.1.9-17.4 6.1-17.4 11s2.5 9 16.6 9c11.9 0 18.9-5.1 18.9-5.1-.5 2.5 0 3.7 0 3.7h20.7c-4.1-3.5-.7-10.3.8-16.6 1.4-6.5 2.3-11.1-3.3-14.1zm-28.7 25.9s-5.3-.2-5.3-3.9c0-4.2 16.3-5.4 16.3-5.4s1.4 9.3-11 9.3zM68.5 49H40l-9 45h33.8s27.8.1 34.6-16.8S101.6 49 68.5 49zM79 73.8c-3.8 13.5-24.2 10.1-24.2 10.1L60 59h9c3.7 0 13.9 1 10 14.8zM105 94h19.1l2.9-12.4s1.5-11.3 18-9.1l1.9-12.6s-11.5-.6-19 8l.4-6.9h-16.8L105 94zM340 94h19.1l2.9-12.4s1.5-11.3 18-9.1l1.9-12.6s-11.5-.6-19 8l.4-6.9h-16.8L340 94zM179 60c-8.9 0-29.1 2.1-32 18.3 0 0-2 17 25.6 17 0 0 25.1.3 31.5-15.8S187.9 60 179 60zm5.9 18.4c-2.1 8.9-10.6 8.8-10.6 8.8-9.3 0-7.4-9.6-7.4-9.6 2.3-9.2 8.4-9.2 11.4-9.2 3.1 0 8.8 1.1 6.6 10zM253.7 61l-.7 4.6c-4.8-6.8-15.1-6.3-15.1-6.3-18.2 0-25.9 11.8-25.9 19.7s8.3 12.8 18.9 12.8c10.6 0 14.9-3.3 14.9-3.3.9 6.9-2.1 9.8-9 9.8S230 96 230 96l-19 .1c4.4 9.9 18.6 8.7 30.6 8.7 21 0 23.4-15.6 23.4-15.6l4.5-28.1h-15.8zM249 76c-1 4.8-5.8 7.6-10.2 7.6-4.4 0-7.5-3.8-6.6-8 .9-4.3 5.6-7.4 10-7.4 4.4.1 7.8 2.8 6.8 7.8zM390 61h19.1l-6 33H384zM392.4 47H412l-1.9 11h-19.4z"/><path fill="#f61c00" d="M20.5 117h41l3.3 61.5L93.1 117h41l-20.5 101H88l15.7-77-35.3 77H45.2l-4-77-15.7 77H0l20.5-101zM154.5 117h27.9l-3.9 19h-27.9l3.9-19zm-5.7 28h28L162 218h-28l14.8-73zM194.8 145h26.1l-2.4 11.9c4.9-4.9 9.5-8.3 13.9-10.4 4.4-2.1 9.5-3.1 15.2-3.1 7.7 0 13.3 2.3 16.8 6.9 3.4 4.6 4.2 11.7 2.2 21.3l-9.4 46.4h-28.1l8.2-40.1c.9-4.6.7-7.8-.6-9.7-1.3-1.9-3.5-2.9-6.6-2.9-3.4 0-6.4 1.3-9 3.8-2.6 2.6-4.6 7.2-6 13.8L208 218h-28l14.8-73zM312.6 168.5l-26.3-2.8c2-4.7 4.2-8.4 6.6-11.1 2.5-2.7 5.7-5 9.7-7 2.9-1.4 6.6-2.5 11.3-3.3 4.7-.8 9.6-1.2 14.9-1.2 8.4 0 15.1.5 20 1.4 4.9.9 8.8 2.9 11.6 5.9 2 2.1 3.3 5 3.9 8.8.6 3.8.6 7.4-.1 10.9l-6.6 32.3c-.7 3.4-1 6.2-1 8.1 0 2 .5 4.4 1.3 7.5h-26.3c-.7-1.9-1.1-3.3-1.2-4.3-.1-1-.1-2.5 0-4.7-4.4 3.5-8.6 6.1-12.5 7.6-5.4 2-11.4 3-17.9 3-8.7 0-15-2-18.7-6.1-3.7-4-5-9-3.8-15 1.1-5.6 3.7-10.1 7.7-13.7 4-3.6 10.6-6.3 19.7-8 11-2.1 18.1-3.6 21.4-4.4 3.3-.9 6.8-2 10.6-3.3.7-3.4.5-5.9-.7-7.2-1.1-1.4-3.5-2.1-7.1-2.1-4.6 0-8.2.7-10.8 2.2-2.1 1.1-3.9 3.3-5.7 6.5zm21.4 14.8c-4.1 1.4-8.4 2.6-12.8 3.7-6 1.5-9.9 3-11.7 4.5-1.9 1.5-3 3.2-3.4 5.2-.4 2.2 0 4 1.2 5.4 1.3 1.4 3.4 2.1 6.4 2.1 3.1 0 6.2-.8 9.2-2.3 3-1.5 5.3-3.4 6.9-5.6 1.6-2.2 2.7-5 3.4-8.5l.8-4.5zM371 197.7l28.4-2.6c.5 3.3 1.6 5.7 3.4 7.1 1.8 1.4 4.4 2.1 7.8 2.1 3.8 0 6.9-.8 9.2-2.4 1.9-1.2 3-2.7 3.3-4.5.4-2-.3-3.6-2.2-4.7-1.4-.8-5.2-1.7-11.5-2.9-9.4-1.7-15.9-3.3-19.4-4.7-3.5-1.4-6.2-3.9-8.1-7.3-1.9-3.4-2.4-7.4-1.5-11.8 1-4.8 3.2-9 6.7-12.5s7.9-6.1 13.2-7.8c5.3-1.7 12-2.6 20.3-2.6 8.7 0 15 .7 18.9 2 3.9 1.3 6.9 3.4 9.2 6.2 2.2 2.8 3.8 6.6 4.6 11.4l-27.2 2.6c-.2-2.3-1-4.1-2.4-5.2-1.9-1.5-4.4-2.2-7.6-2.2-3.2 0-5.6.6-7.3 1.7-1.7 1.1-2.7 2.5-3 4.1-.4 1.8.3 3.1 1.9 4.1 1.7.9 5.5 1.7 11.5 2.5 9.1 1.1 15.8 2.5 19.9 4.4 4.2 1.9 7.1 4.6 8.8 8.1 1.7 3.5 2.1 7.3 1.3 11.5-.9 4.2-3 8.3-6.3 12.3-3.4 4-8 7.2-14 9.5-6 2.4-13.7 3.5-23.2 3.5-13.4 0-22.5-1.9-27.4-5.7-4.6-3.8-7.1-9.2-7.3-16.2zM463.5 170h41.3l-4.5 22H459l4.5-22zM528.5 117h58.4c9.7 0 16.7 2.4 21 7.2 4.2 4.8 5.6 10.8 4.2 17.9-1.2 6-4.1 11.1-8.7 15.4-3.1 2.8-7.1 5.1-12.3 6.8 6.9 1.7 11.6 4.7 14.2 9 2.6 4.2 3.2 9.6 1.9 16a33.7 33.7 0 0 1-6.5 14.1c-3.3 4.2-7.3 7.5-12 9.9-2.9 1.5-7.1 2.6-12.5 3.3-7.2.9-12 1.4-14.3 1.4H508l20.5-101zm23.6 39h13.5c4.8 0 8.4-.8 10.6-2.5 2.2-1.7 3.7-4.1 4.3-7.2.6-2.9.1-5.2-1.4-6.8-1.6-1.6-4.7-2.5-9.4-2.5H556l-3.9 19zm-7.8 40h15.6c5.3 0 9.1-.9 11.7-2.8 2.5-1.9 4.1-4.4 4.8-7.5.6-2.9 0-5.3-1.8-7-1.8-1.8-5.3-2.7-10.7-2.7h-15.5l-4.1 20zM631.8 145H658l-2.4 12c3.6-5.2 6.9-8.7 10-10.7 3.1-1.9 6.6-2.9 10.5-2.9 4.1 0 8.4 1.3 12.8 3.8l-12.7 19.9c-3-1.4-5.5-2.1-7.4-2.1-3.7 0-6.8 1.5-9.4 4.5-3.8 4.3-6.8 12.2-9.2 23.9l-5 24.5H617l14.8-72.9zM717.6 168.5l-26.3-2.8c2-4.7 4.2-8.4 6.6-11.1 2.5-2.7 5.7-5 9.7-7 2.9-1.4 6.6-2.5 11.3-3.3 4.7-.8 9.6-1.2 14.9-1.2 8.4 0 15.1.5 20 1.4 4.9.9 8.8 2.9 11.6 5.9 2 2.1 3.3 5 3.9 8.8.6 3.8.6 7.4-.1 10.9l-6.6 32.3c-.7 3.4-1 6.2-1 8.1 0 2 .5 4.4 1.3 7.5h-26.3c-.7-1.9-1.1-3.3-1.2-4.3-.1-1-.1-2.5 0-4.7-4.4 3.5-8.6 6.1-12.5 7.6-5.4 2-11.4 3-17.9 3-8.7 0-15-2-18.7-6.1-3.7-4-5-9-3.8-15 1.1-5.6 3.7-10.1 7.7-13.7 4-3.6 10.6-6.3 19.7-8 11-2.1 18.1-3.6 21.4-4.4 3.3-.9 6.8-2 10.6-3.3.7-3.4.5-5.9-.7-7.2-1.1-1.4-3.5-2.1-7.1-2.1-4.6 0-8.2.7-10.8 2.2-2.1 1.1-3.9 3.3-5.7 6.5zm21.4 14.8c-4.1 1.4-8.4 2.6-12.8 3.7-6 1.5-9.9 3-11.7 4.5-1.9 1.5-3 3.2-3.4 5.2-.4 2.2 0 4 1.2 5.4 1.3 1.4 3.4 2.1 6.4 2.1 3.1 0 6.2-.8 9.2-2.3 3-1.5 5.3-3.4 6.9-5.6 1.6-2.2 2.7-5 3.4-8.5l.8-4.5zM777 197.7l28.4-2.6c.5 3.3 1.6 5.7 3.4 7.1 1.8 1.4 4.4 2.1 7.8 2.1 3.8 0 6.9-.8 9.3-2.4 1.9-1.2 3-2.7 3.3-4.5.4-2-.3-3.6-2.2-4.7-1.4-.8-5.2-1.7-11.5-2.9-9.4-1.7-15.9-3.3-19.4-4.7-3.5-1.4-6.2-3.9-8.1-7.3-1.9-3.4-2.4-7.4-1.5-11.8 1-4.8 3.2-9 6.7-12.5s7.9-6.1 13.2-7.8c5.3-1.7 12-2.6 20.3-2.6 8.7 0 15 .7 18.9 2 3.9 1.3 6.9 3.4 9.2 6.2 2.2 2.8 3.8 6.6 4.6 11.4l-27.2 2.6c-.2-2.3-1-4.1-2.4-5.2-1.9-1.5-4.4-2.2-7.6-2.2-3.2 0-5.6.6-7.3 1.7-1.7 1.1-2.7 2.5-3 4.1-.4 1.8.3 3.1 1.9 4.1 1.7.9 5.5 1.7 11.5 2.5 9.1 1.1 15.8 2.5 19.9 4.4 4.2 1.9 7.1 4.6 8.8 8.1 1.7 3.5 2.1 7.3 1.3 11.5-.9 4.2-3 8.3-6.3 12.3-3.4 4-8 7.2-14 9.5-6 2.4-13.7 3.5-23.2 3.5-13.4 0-22.5-1.9-27.4-5.7-4.7-3.8-7.2-9.2-7.4-16.2zM885.5 117h27.9l-3.9 19h-27.9l3.9-19zm-5.7 28h28L893 218h-28l14.8-73zM932.5 117h28.1l-20.5 101H912l20.5-101zM324.8 57.2c-5.6-3.1-26-2.3-26-2.3-18.3 0-22 10.1-22 10.1l18.5.2s1.1-4.1 9.2-3.8c8.9.4 3.4 6.2 3.4 6.2-1.2.9-9.1.8-19.4 1.7-11.1.9-17.4 6.1-17.4 11s2.5 9 16.6 9c11.9 0 18.9-5.1 18.9-5.1-.5 2.5 0 3.7 0 3.7h20.7c-4.1-3.5-.7-10.3.8-16.6 1.4-6.5 2.3-11.1-3.3-14.1zm-28.7 25.9s-5.3-.2-5.3-3.9c0-4.2 16.3-5.4 16.3-5.4s1.4 9.3-11 9.3zM464.8 57.2c-5.6-3.1-26-2.3-26-2.3-18.3 0-22 10.1-22 10.1l18.5.2s1.1-4.1 9.2-3.8c8.9.4 3.4 6.2 3.4 6.2-1.2.9-9.1.8-19.4 1.7-11.1.9-17.4 6.1-17.4 11s2.5 9 16.6 9c11.9 0 18.9-5.1 18.9-5.1-.5 2.5 0 3.7 0 3.7h20.7c-4.1-3.5-.7-10.3.8-16.6 1.4-6.5 2.3-11.1-3.3-14.1zm-28.7 25.9s-5.3-.2-5.3-3.9c0-4.2 16.3-5.4 16.3-5.4s1.4 9.3-11 9.3zM64.5 45H36l-9 45h33.8s27.8.1 34.6-16.8S97.6 45 64.5 45zM75 69.8c-3.8 13.5-24.2 10.1-24.2 10.1L56 55h9c3.7 0 13.9 1 10 14.8zM101 90h19.1l2.9-12.4s1.5-11.3 18-9.1l1.9-12.6s-11.5-.6-19 8l.4-6.9h-16.8L101 90zM336 90h19.1l2.9-12.4s1.5-11.3 18-9.1l1.9-12.6s-11.5-.6-19 8l.4-6.9h-16.8L336 90zM175 56c-8.9 0-29.1 2.1-32 18.3 0 0-2 17 25.6 17 0 0 25.1.3 31.5-15.8S183.9 56 175 56zm5.9 18.4c-2.1 8.9-10.6 8.8-10.6 8.8-9.3 0-7.4-9.6-7.4-9.6 2.3-9.2 8.4-9.2 11.4-9.2 3.1 0 8.8 1.1 6.6 10zM249.7 57l-.7 4.6c-4.8-6.8-15.1-6.3-15.1-6.3-18.2 0-25.9 11.8-25.9 19.7s8.3 12.8 18.9 12.8c10.6 0 14.9-3.3 14.9-3.3.9 6.9-2.1 9.8-9 9.8S226 92 226 92l-19 .1c4.4 9.9 18.6 8.7 30.6 8.7 21 0 23.4-15.6 23.4-15.6l4.5-28.1h-15.8zM245 72c-1 4.8-5.8 7.6-10.2 7.6-4.4 0-7.5-3.8-6.6-8 .9-4.3 5.6-7.4 10-7.4 4.4.1 7.8 2.8 6.8 7.8zM386 57h19.1l-6 33H380zM388.4 43H408l-1.9 11h-19.4z"/><path d="M0 257.9h14.7l2.9 23.3 11.7-23.3h14.2l-22.4 36.8H8.6L0 257.9zM83.7 279.8H55.4c-.2 2.3.1 4 .9 5.1 1.1 1.6 2.7 2.4 4.9 2.4 1.4 0 2.8-.3 4.1-1 .8-.4 1.8-1.2 2.9-2.3l13.7 1.3c-2.8 3.7-5.9 6.3-9.2 8-3.3 1.6-7.8 2.4-13.4 2.4-4.9 0-8.6-.7-11.1-2.1a13.5 13.5 0 0 1-5.8-6.6c-1.3-3-1.6-6.5-.8-10.6 1.1-5.8 3.7-10.4 8.1-14 4.3-3.6 9.8-5.3 16.2-5.3 5.3 0 9.3.8 12 2.4 2.8 1.6 4.7 3.9 5.7 6.9 1 3 1.1 7 .2 11.8l-.1 1.6zM70.6 273c.2-2.7-.2-4.7-1.1-5.9-1-1.2-2.4-1.8-4.4-1.8-2.2 0-4.2.9-5.9 2.7-1.1 1.1-1.9 2.8-2.5 5h13.9zM95.2 257.9h13.1l-1.1 6c2.4-2.4 4.7-4.2 6.9-5.3 2.2-1.1 4.7-1.6 7.6-1.6 3.9 0 6.8 1.2 8.5 3.5 1.8 2.3 2.2 5.9 1.3 10.8l-4.3 23.4H113l3.7-20.2c.4-2.3.3-3.9-.4-4.9-.7-1-1.8-1.4-3.3-1.4-1.7 0-3.2.6-4.5 1.9-1.3 1.3-2.3 3.6-2.9 7l-3.2 17.7h-14l6.8-36.9zM184.7 243.9l-9.3 50.8h-13.2l1-5.4c-2.3 2.3-4.2 3.9-5.9 4.7-2.2 1.1-4.6 1.6-7.1 1.6-5 0-8.5-1.9-10.4-5.7-1.9-3.8-2.4-8.4-1.4-13.9 1.1-6.1 3.4-10.8 6.9-14 3.5-3.2 7.5-4.9 12-4.9 2.2 0 4.1.4 5.8 1.1 1.7.7 3 1.8 4.2 3.3l3.2-17.6h14.2zm-20 32.3c.5-2.9.3-5-.7-6.5-1-1.4-2.4-2.1-4.3-2.1-1.6 0-3.1.7-4.5 2-1.4 1.4-2.3 3.7-2.9 6.9-.5 3-.4 5.2.5 6.6.9 1.4 2.2 2.1 3.9 2.1a7 7 0 0 0 4.9-2.1c1.5-1.4 2.5-3.7 3.1-6.9zM227.9 279.8h-28.3c-.2 2.3.1 4 .9 5.1 1.1 1.6 2.7 2.4 4.9 2.4 1.4 0 2.8-.3 4.1-1 .8-.4 1.8-1.2 2.9-2.3l13.7 1.3c-2.8 3.7-5.9 6.3-9.2 8-3.3 1.6-7.8 2.4-13.4 2.4-4.9 0-8.6-.7-11.1-2.1a13.5 13.5 0 0 1-5.8-6.6c-1.3-3-1.6-6.5-.8-10.6 1.1-5.8 3.7-10.4 8.1-14 4.3-3.6 9.8-5.3 16.2-5.3 5.3 0 9.3.8 12 2.4 2.8 1.6 4.7 3.9 5.7 6.9 1 3 1.1 7 .2 11.8l-.1 1.6zm-13.1-6.8c.2-2.7-.2-4.7-1.1-5.9-1-1.2-2.4-1.8-4.4-1.8-2.2 0-4.2.9-5.9 2.7-1.1 1.1-1.9 2.8-2.5 5h13.9zM238.6 257.9h13.2l-1.1 6c1.7-2.6 3.4-4.4 4.9-5.4 1.5-1 3.3-1.5 5.3-1.5 2.1 0 4.2.6 6.5 1.9l-6.2 10.1c-1.5-.7-2.8-1-3.8-1-1.8 0-3.4.8-4.7 2.3-1.8 2.1-3.3 6.2-4.4 12.1l-2.3 12.3h-14.2l6.8-36.8zM298.3 243.9h14.2l-3.2 17.6a17.1 17.1 0 0 1 11.5-4.4c4.5 0 7.9 1.6 10.2 4.8 2.3 3.2 3 7.9 1.9 13.9-.7 4-2.1 7.6-4 10.6-1.9 3.1-4.2 5.4-6.8 6.9a16.5 16.5 0 0 1-8.3 2.3c-2.5 0-4.6-.5-6.5-1.6-1.4-.8-2.8-2.4-4.2-4.7l-1 5.4H289l9.3-50.8zm8.3 32.3c-.6 3.2-.4 5.5.5 6.9.9 1.4 2.3 2.1 4.1 2.1 1.7 0 3.2-.7 4.6-2.1 1.4-1.4 2.4-3.7 3-7.1.5-2.9.4-5-.5-6.4-.9-1.4-2.1-2-3.7-2-1.9 0-3.6.7-5.1 2.1-1.4 1.4-2.4 3.6-2.9 6.5zM353.6 269.8l-13.2-1.4c.9-2.4 2-4.2 3.2-5.6 1.2-1.4 2.8-2.5 4.8-3.5 1.4-.7 3.3-1.3 5.6-1.7 2.3-.4 4.8-.6 7.5-.6 4.2 0 7.6.2 10.1.7 2.5.5 4.4 1.5 5.9 3 1 1 1.7 2.5 2 4.4.3 1.9.4 3.7 0 5.5l-3 16.3c-.3 1.7-.5 3.1-.4 4.1 0 1 .3 2.2.8 3.8h-13.2c-.4-.9-.6-1.7-.6-2.2-.1-.5-.1-1.3-.1-2.3-2.2 1.8-4.2 3.1-6.2 3.8-2.7 1-5.7 1.5-9 1.5-4.4 0-7.5-1-9.4-3.1-1.9-2-2.6-4.5-2-7.5.5-2.8 1.8-5.1 3.7-6.9 2-1.8 5.2-3.1 9.8-4 5.5-1.1 9.1-1.8 10.7-2.2 1.6-.4 3.4-1 5.3-1.7.3-1.7.2-2.9-.4-3.6-.6-.7-1.8-1-3.6-1-2.3 0-4.1.4-5.4 1.1-1.1.4-2.1 1.5-2.9 3.1zm10.9 7.4c-2.1.7-4.2 1.3-6.4 1.8-3 .8-5 1.5-5.9 2.3-.9.8-1.5 1.6-1.7 2.6-.2 1.1 0 2 .7 2.7.6.7 1.7 1.1 3.2 1.1 1.6 0 3.1-.4 4.6-1.1 1.5-.8 2.6-1.7 3.4-2.8.8-1.1 1.3-2.5 1.6-4.3l.5-2.3zM390.7 257.9h13.2l-1.1 6c1.7-2.6 3.4-4.4 4.9-5.4 1.5-1 3.3-1.5 5.3-1.5 2.1 0 4.2.6 6.5 1.9l-6.2 10.1c-1.5-.7-2.8-1-3.8-1-1.8 0-3.4.8-4.7 2.3-1.8 2.1-3.3 6.2-4.4 12.1l-2.3 12.3h-14.2l6.8-36.8zM434.3 269.8l-13.2-1.4c.9-2.4 2-4.2 3.2-5.6 1.2-1.4 2.8-2.5 4.8-3.5 1.4-.7 3.3-1.3 5.6-1.7 2.3-.4 4.8-.6 7.5-.6 4.2 0 7.6.2 10.1.7 2.5.5 4.4 1.5 5.9 3 1 1 1.7 2.5 2 4.4.3 1.9.4 3.7 0 5.5l-3 16.3c-.3 1.7-.5 3.1-.4 4.1 0 1 .3 2.2.8 3.8h-13.2c-.4-.9-.6-1.7-.6-2.2-.1-.5-.1-1.3-.1-2.3-2.2 1.8-4.2 3.1-6.2 3.8-2.7 1-5.7 1.5-9 1.5-4.4 0-7.5-1-9.4-3.1-1.9-2-2.6-4.5-2-7.5.5-2.8 1.8-5.1 3.7-6.9 2-1.8 5.2-3.1 9.8-4 5.5-1.1 9.1-1.8 10.7-2.2 1.6-.4 3.4-1 5.3-1.7.3-1.7.2-2.9-.4-3.6-.6-.7-1.8-1-3.6-1-2.3 0-4.1.4-5.4 1.1-1.1.4-2 1.5-2.9 3.1zm10.9 7.4c-2.1.7-4.2 1.3-6.4 1.8-3 .8-5 1.5-5.9 2.3-.9.8-1.5 1.6-1.7 2.6-.2 1.1 0 2 .7 2.7.6.7 1.7 1.1 3.2 1.1 1.6 0 3.1-.4 4.6-1.1 1.5-.8 2.6-1.7 3.4-2.8.8-1.1 1.3-2.5 1.6-4.3l.5-2.3zM490 243.9l-2.6 14h7.8l-1.9 10.3h-7.8l-2.4 13c-.3 1.6-.3 2.6-.1 3.1.3.8 1.1 1.2 2.2 1.2 1 0 2.6-.3 4.5-.9l-.7 9.7c-3.6.8-7 1.1-10 1.1-3.5 0-6-.5-7.5-1.4a6.2 6.2 0 0 1-2.9-4.1c-.5-1.8-.3-4.8.4-8.9l2.4-12.9h-5.2l1.9-10.3h5.2l1.2-6.8 15.5-7.1zM497.4 276.4c1-5.6 3.8-10.2 8.2-13.9 4.5-3.6 9.9-5.5 16.4-5.5 7.4 0 12.6 2.1 15.5 6.4 2.4 3.4 3.1 7.7 2.2 12.7-1 5.7-3.8 10.3-8.2 13.9-4.4 3.6-9.9 5.4-16.6 5.4-5.9 0-10.4-1.5-13.5-4.5-3.7-3.6-5.1-8.5-4-14.5zm14.2-.1c-.6 3.3-.4 5.7.7 7.3 1 1.6 2.6 2.4 4.6 2.4 2 0 3.8-.8 5.4-2.3 1.6-1.5 2.7-4 3.3-7.5.6-3.2.4-5.6-.7-7.1-1-1.6-2.5-2.3-4.5-2.3-2.1 0-3.9.8-5.5 2.4-1.6 1.5-2.7 3.9-3.3 7.1zM612.2 279.8h-28.3c-.2 2.3.1 4 .9 5.1 1.1 1.6 2.7 2.4 4.9 2.4 1.4 0 2.8-.3 4.1-1 .8-.4 1.8-1.2 2.9-2.3l13.7 1.3c-2.8 3.7-5.9 6.3-9.2 8-3.3 1.6-7.8 2.4-13.4 2.4-4.9 0-8.6-.7-11.1-2.1s-4.5-3.6-5.8-6.6c-1.3-3-1.6-6.5-.8-10.6 1.1-5.8 3.7-10.4 8.1-14 4.3-3.6 9.8-5.3 16.2-5.3 5.3 0 9.3.8 12 2.4 2.8 1.6 4.7 3.9 5.7 6.9 1 3 1.1 7 .2 11.8l-.1 1.6zm-13.1-6.8c.2-2.7-.2-4.7-1.1-5.9-1-1.2-2.4-1.8-4.4-1.8-2.2 0-4.2.9-5.9 2.7-1.1 1.1-1.9 2.8-2.5 5h13.9zm-2-30h12.1l-13.1 10.4h-6.8l7.8-10.4zM666.8 243.9l-2.6 14h7.8l-1.9 10.3h-7.8l-2.4 13c-.3 1.6-.3 2.6-.1 3.1.3.8 1.1 1.2 2.2 1.2 1 0 2.6-.3 4.5-.9l-.7 9.7c-3.6.8-7 1.1-10 1.1-3.5 0-6-.5-7.5-1.4a6.2 6.2 0 0 1-2.9-4.1c-.5-1.8-.3-4.8.4-8.9l2.4-12.9H643l1.9-10.3h5.2l1.2-6.8 15.5-7.1zM679.1 257.9h13.2l-1.1 6c1.7-2.6 3.4-4.4 4.9-5.4 1.5-1 3.3-1.5 5.3-1.5 2.1 0 4.2.6 6.5 1.9l-6.2 10.1c-1.5-.7-2.8-1-3.8-1-1.8 0-3.4.8-4.7 2.3-1.8 2.1-3.3 6.2-4.4 12.1l-2.3 12.3h-14.2l6.8-36.8zM722.8 269.8l-13.2-1.4c.9-2.4 2-4.2 3.2-5.6 1.2-1.4 2.8-2.5 4.8-3.5 1.4-.7 3.3-1.3 5.6-1.7 2.3-.4 4.8-.6 7.5-.6 4.2 0 7.6.2 10.1.7 2.5.5 4.4 1.5 5.9 3 1 1 1.7 2.5 2 4.4.3 1.9.4 3.7 0 5.5l-3 16.3c-.3 1.7-.5 3.1-.4 4.1 0 1 .3 2.2.8 3.8h-13.2c-.4-.9-.6-1.7-.6-2.2-.1-.5-.1-1.3-.1-2.3-2.2 1.8-4.2 3.1-6.2 3.8-2.7 1-5.7 1.5-9 1.5-4.4 0-7.5-1-9.4-3.1-1.9-2-2.6-4.5-2-7.5.5-2.8 1.8-5.1 3.7-6.9 2-1.8 5.2-3.1 9.8-4 5.5-1.1 9.1-1.8 10.7-2.2 1.7-.4 3.4-1 5.3-1.7.3-1.7.2-2.9-.4-3.6-.6-.7-1.8-1-3.6-1-2.3 0-4.1.4-5.4 1.1-1.2.4-2.1 1.5-2.9 3.1zm10.9 7.4c-2.1.7-4.2 1.3-6.4 1.8-3 .8-5 1.5-5.9 2.3-.9.8-1.5 1.6-1.7 2.6-.2 1.1 0 2 .7 2.7.6.7 1.7 1.1 3.2 1.1 1.6 0 3.1-.4 4.6-1.1 1.5-.8 2.6-1.7 3.4-2.8.8-1.1 1.3-2.5 1.6-4.3l.5-2.3zM802 243.9l-9.3 50.8h-13.2l1-5.4c-2.3 2.3-4.2 3.9-5.9 4.7-2.2 1.1-4.6 1.6-7.1 1.6-5 0-8.5-1.9-10.4-5.7-1.9-3.8-2.4-8.4-1.4-13.9 1.1-6.1 3.4-10.8 6.9-14 3.5-3.2 7.5-4.9 12-4.9 2.2 0 4.1.4 5.8 1.1 1.7.7 3 1.8 4.2 3.3l3.2-17.6H802zm-20 32.3c.5-2.9.3-5-.7-6.5-1-1.4-2.4-2.1-4.3-2.1-1.6 0-3.1.7-4.5 2-1.4 1.4-2.3 3.7-2.9 6.9-.5 3-.4 5.2.5 6.6.9 1.4 2.2 2.1 3.9 2.1a7 7 0 0 0 4.9-2.1c1.5-1.4 2.5-3.7 3.1-6.9zM811.4 243.9h14.1l-1.8 9.6h-14.1l1.8-9.6zm-2.6 14h14.1l-6.7 36.8h-14.1l6.7-36.8zM856.8 280.3l13.1 1.5c-1.3 2.8-2.9 5.2-5 7.3-2.1 2-4.5 3.6-7.3 4.8-2.8 1.1-6.3 1.7-10.3 1.7-3.9 0-7.1-.4-9.6-1.1-2.5-.7-4.5-1.9-6.1-3.5a13.8 13.8 0 0 1-3.4-5.7c-.7-2.2-.7-5.1 0-8.7.7-3.8 1.9-6.9 3.7-9.5 1.3-1.8 2.9-3.5 4.8-5s3.8-2.6 5.7-3.3c3-1.1 6.6-1.7 10.9-1.7 6 0 10.4 1.1 13.2 3.2 2.8 2.2 4.4 5.3 4.9 9.4l-13.6 1.8c-.1-1.6-.7-2.8-1.6-3.6-1-.8-2.4-1.2-4.2-1.2-2.3 0-4.4.8-6.1 2.5-1.8 1.7-2.9 4.2-3.6 7.6-.6 3-.3 5.3.9 6.9 1.1 1.6 2.8 2.4 5 2.4 1.8 0 3.5-.5 4.9-1.4 1.5-1 2.7-2.5 3.7-4.4zm-19.6 20.1l1.8-4.1c2.3-.5 4.4-.8 6.2-.8 4 0 6.6.7 7.8 2 1.3 1.3 1.7 2.9 1.4 4.8-.2 1.1-.8 2.3-1.6 3.4-.9 1.2-2.3 2.1-4.2 2.8-1.9.7-4.3 1.1-7.2 1.1-2.6 0-5.7-.3-9.1-.9l.8-4.3c2.3.5 4.8.7 7.5.7 2 0 3.4-.3 4.2-.8.8-.5 1.3-1.2 1.4-2.1.1-.7-.1-1.2-.5-1.7-.5-.5-1.3-.7-2.6-.7-1.6.1-3.6.3-5.9.6zM890.9 269.8l-13.2-1.4c.9-2.4 2-4.2 3.2-5.6 1.2-1.4 2.8-2.5 4.8-3.5 1.4-.7 3.3-1.3 5.6-1.7 2.3-.4 4.8-.6 7.5-.6 4.2 0 7.6.2 10.1.7 2.5.5 4.4 1.5 5.9 3 1 1 1.7 2.5 2 4.4.3 1.9.4 3.7 0 5.5l-3 16.3c-.3 1.7-.5 3.1-.4 4.1 0 1 .3 2.2.8 3.8H901c-.4-.9-.6-1.7-.6-2.2-.1-.5-.1-1.3-.1-2.3-2.2 1.8-4.2 3.1-6.2 3.8-2.7 1-5.7 1.5-9 1.5-4.4 0-7.5-1-9.4-3.1-1.9-2-2.6-4.5-2-7.5.5-2.8 1.8-5.1 3.7-6.9 2-1.8 5.2-3.1 9.8-4 5.5-1.1 9.1-1.8 10.7-2.2 1.7-.4 3.4-1 5.3-1.7.3-1.7.2-2.9-.4-3.6-.6-.7-1.8-1-3.6-1-2.3 0-4.1.4-5.4 1.1-1.2.4-2.1 1.5-2.9 3.1zm18.2-26h5.5c-.1.6-.2 1.1-.3 1.6-.5 2.6-1.5 4.6-3 6a7.8 7.8 0 0 1-5.4 2.1c-1.5 0-3.6-.6-6.4-1.8-1.7-.7-2.9-1.1-3.6-1.1-.7 0-1.2.2-1.7.6-.4.4-.8 1.2-1 2.2h-5.4c.1-.6.2-1 .2-1.5.5-2.5 1.5-4.4 3.1-5.9a7.59 7.59 0 0 1 7.5-1.9c.7.2 1.9.7 3.7 1.5 1.8.8 3.1 1.2 4 1.2.6 0 1.2-.2 1.6-.6.6-.5 1-1.2 1.2-2.4zm-7.4 33.4c-2.1.7-4.2 1.3-6.4 1.8-3 .8-5 1.5-5.9 2.3-.9.8-1.5 1.6-1.7 2.6-.2 1.1 0 2 .7 2.7.6.7 1.7 1.1 3.2 1.1 1.6 0 3.1-.4 4.6-1.1 1.5-.8 2.6-1.7 3.4-2.8.8-1.1 1.3-2.5 1.6-4.3l.5-2.3zM923.5 276.4c1-5.6 3.8-10.2 8.2-13.9 4.5-3.6 9.9-5.5 16.4-5.5 7.4 0 12.6 2.1 15.5 6.4 2.4 3.4 3.1 7.7 2.2 12.7-1 5.7-3.8 10.3-8.2 13.9-4.4 3.6-9.9 5.4-16.6 5.4-5.9 0-10.4-1.5-13.5-4.5-3.7-3.6-5.1-8.5-4-14.5zm14.2-.1c-.6 3.3-.4 5.7.7 7.3 1 1.6 2.6 2.4 4.6 2.4 2 0 3.8-.8 5.4-2.3 1.6-1.5 2.7-4 3.3-7.5.6-3.2.4-5.6-.7-7.1-1-1.6-2.5-2.3-4.5-2.3-2.1 0-3.9.8-5.5 2.4-1.6 1.5-2.7 3.9-3.3 7.1z"/><g><linearGradient id="SVGID_1_" gradientUnits="userSpaceOnUse" x1="1094" y1="228" x2="1094"><stop offset="0" stop-color="#D26D00"/><stop offset="1" stop-color="#6B2818"/></linearGradient><path fill="url(#SVGID_1_)" d="M1183 37l-2-1h-10l-5-5-2-1-19-1-8-1-3-3-12-1-3.1.9-2.3-2.3.4-.6-3.6-3.5-2.4-6.5-2-3-9-9h-2l-2 3-1 4-2 2-9 4-3-3-4 1v4l-8.7 1.8.7-.8-1-3-11-11h-2l-2 3-5 2-5 6-6-4-1 2 1 1v6l2.3 2.3-2.3 3.7-5 3-4.3 1.7-5.7-5.7-4 3h-4l-2 1-1 2 3 3-2 2h-3v2l2.9 2.8-.9 5.2v6l-1 5v2l-11 5-1 3-3 2-1 5-3 6v3l3 3 1 3 9 9 4 3h3l.6-.6 3.4 3.6h10l4-2 4.5-4.5 7.5 7.5 8 3 3.6 3.6.4.4 1.7.2.3 2.8 11 11 2 .5v3.5l-3 3 1 11 1 4 2 3 9 9 2.3.3 3.3 3.3.4 2.4-2 2 1 2 3 3v4l-14 14v3l-4 4 1 2 9 9h2l4 4 2 1h2v6l10 10 1-1 2-6 1-2 2-2 4-3 3-4 1.8-4.9 3.2-8.1 3-2 2-5 1-6 1-7 3-5 7-7 8-6 6-3 8-1 2-2 1-3 3-1 2-2-2-3 1-2 5-5v-3l2-2 1-3-2-5 4-3v-10l2-8 1-9 5-3 1-7 4-3 1-4 3-1 5-6 3-13v-6z"/><linearGradient id="SVGID_2_" gradientUnits="userSpaceOnUse" x1="1089.5" y1="219" x2="1089.5"><stop offset="0" stop-color="#FFF21B"/><stop offset="1" stop-color="#F48400"/></linearGradient><path fill="url(#SVGID_2_)" d="M1089 219l-1-1v-6l-1-3-4-4-4-2h-2l-2-1-1-1v-2l-1-1h-4l-1-2 4-4v-3l14-14v-5l-1-2h-2l-1-2 2-2-1-6h-3l-3-3-1-5-7-1-2-3-1-4-1-11 3-3v-5l-3-3-2-4h-2l-4-1-2-2-1-11-10-1-4-4-8-3-1-2v-8l-1-1h-2l-8 8-4 2h-10l-1-4h-2l-1 1h-3l-4-3-1-3-3-3v-3l3-6 1-5 3-2 1-3 11-5v-2l1-5v-6l1-6-1-1-2-1v-2h3l2-2-1-2-2-1 1-2 2-1h4l4-3 2 3 3 3 5-2 5-3 3-5-3-1v-6l-1-1 1-2 6 4 5-6 5-2 2-3h2l2 2 1 3-2 2-1 3 2 8h5l3-3 10-2v-4l4-1 3 3 9-4 2-2 1-4 2-3h2l2 3 3 8 3 2-5 9 6-2h5l2 3-4 4 10-3 12 1 1 4 2-1 8 1 19 1 2 1 5 5h10l2 1 5 5v6l-3 13-5 6-3 1-1 4-4 3-1 7-5 3-1 9-2 8v10l-4 3 2 5-1 3-2 2v3l-5 5-1 2 2 3-2 2-3 1-1 3-2 2-8 1-6 3-8 6-7 7-3 5-1 7-1 6-2 5-3 2-3.2 8.1-1.8 4.9-3 4-4 3-2 2-1 2-2 6z"/><path fill="#fff" d="M1134 139l-5 1-4 3h-2l-1-2-1-4 1-3h-2l-1-7-3-2-3 1-1 1h-3l-1-1-4-1h-2l-2 1v-2l2-4 3-2 5-2h6l2-1v-4l-1-1v-1l1-1 1-2-2-1 1-3 3-1-1-1v-3l1-2h2v1l1 2 2-2 3-2 2-2h3l1 3h1l1-1 3 1 2 2h3l1 3h5l3 3-3 4-1 3 2 1v2h-4l-1 3-1 1 3 4-2 5-2 1-1 4-1 1v4l-4 1z"/><path d="M1143 106.9a6.95 6.95 0 0 0-9.5 0 6.95 6.95 0 0 0-9.5 0 6.4 6.4 0 0 0 0 9.2l9.5 9.2 9.5-9.2c2.7-2.5 2.7-6.7 0-9.2z" fill="red"/></g></svg>
